<svg xmlns="http://www.w3.org/2000/svg" width="720" height="420" viewBox="0 0 720 420" font-family="-apple-system, BlinkMacSystemFont, 'Segoe UI', 'Noto Sans KR', 'Noto Sans CJK KR', 'Apple SD Gothic Neo', 'Malgun Gothic', sans-serif">
  <rect width="720" height="420" fill="#fbfbf9"/>
  <text x="20.0" y="30.0" font-size="16" fill="#24292f" text-anchor="start" font-weight="600">퀵 정렬 피벗 선택 — 비교 횟수 (로그-로그)</text>
  <text x="20.0" y="50.0" font-size="11.5" fill="#6e7781" text-anchor="start" font-weight="400">첫 원소 피벗 + 정렬된 입력만 기울기 2 (n(n-1)/2). 랜덤 피벗은 입력과 무관하게 n log n</text>
  <line x1="78.0" y1="362.0" x2="696.0" y2="362.0" stroke="#dfe1e4" stroke-width="1" stroke-dasharray="none"/>
  <text x="68.0" y="366.0" font-size="10.5" fill="#6e7781" text-anchor="end" font-weight="400">10K</text>
  <line x1="78.0" y1="304.4" x2="696.0" y2="304.4" stroke="#dfe1e4" stroke-width="1" stroke-dasharray="none"/>
  <text x="68.0" y="308.4" font-size="10.5" fill="#6e7781" text-anchor="end" font-weight="400">100K</text>
  <line x1="78.0" y1="246.8" x2="696.0" y2="246.8" stroke="#dfe1e4" stroke-width="1" stroke-dasharray="none"/>
  <text x="68.0" y="250.8" font-size="10.5" fill="#6e7781" text-anchor="end" font-weight="400">1M</text>
  <line x1="78.0" y1="189.2" x2="696.0" y2="189.2" stroke="#dfe1e4" stroke-width="1" stroke-dasharray="none"/>
  <text x="68.0" y="193.2" font-size="10.5" fill="#6e7781" text-anchor="end" font-weight="400">10M</text>
  <line x1="78.0" y1="131.6" x2="696.0" y2="131.6" stroke="#dfe1e4" stroke-width="1" stroke-dasharray="none"/>
  <text x="68.0" y="135.6" font-size="10.5" fill="#6e7781" text-anchor="end" font-weight="400">100M</text>
  <line x1="78.0" y1="74.0" x2="696.0" y2="74.0" stroke="#dfe1e4" stroke-width="1" stroke-dasharray="none"/>
  <text x="68.0" y="78.0" font-size="10.5" fill="#6e7781" text-anchor="end" font-weight="400">1B</text>
  <line x1="78.0" y1="74.0" x2="78.0" y2="362.0" stroke="#dfe1e4" stroke-width="1" stroke-dasharray="2 4"/>
  <text x="78.0" y="380.0" font-size="10.5" fill="#6e7781" text-anchor="middle" font-weight="400">1,000</text>
  <line x1="232.5" y1="74.0" x2="232.5" y2="362.0" stroke="#dfe1e4" stroke-width="1" stroke-dasharray="2 4"/>
  <text x="232.5" y="380.0" font-size="10.5" fill="#6e7781" text-anchor="middle" font-weight="400">2,000</text>
  <line x1="387.0" y1="74.0" x2="387.0" y2="362.0" stroke="#dfe1e4" stroke-width="1" stroke-dasharray="2 4"/>
  <text x="387.0" y="380.0" font-size="10.5" fill="#6e7781" text-anchor="middle" font-weight="400">4,000</text>
  <line x1="541.5" y1="74.0" x2="541.5" y2="362.0" stroke="#dfe1e4" stroke-width="1" stroke-dasharray="2 4"/>
  <text x="541.5" y="380.0" font-size="10.5" fill="#6e7781" text-anchor="middle" font-weight="400">8,000</text>
  <line x1="696.0" y1="74.0" x2="696.0" y2="362.0" stroke="#dfe1e4" stroke-width="1" stroke-dasharray="2 4"/>
  <text x="696.0" y="380.0" font-size="10.5" fill="#6e7781" text-anchor="middle" font-weight="400">16,000</text>
  <line x1="78.0" y1="362.0" x2="696.0" y2="362.0" stroke="#6e7781" stroke-width="1" stroke-dasharray="none"/>
  <line x1="78.0" y1="74.0" x2="78.0" y2="362.0" stroke="#6e7781" stroke-width="1" stroke-dasharray="none"/>
  <text x="387.0" y="406.0" font-size="11.5" fill="#6e7781" text-anchor="middle" font-weight="400">n (원소 개수)</text>
  <text x="20.0" y="60.0" font-size="11.5" fill="#6e7781" text-anchor="start" font-weight="400">비교 횟수</text>
  <polyline points="78.0,264.2 232.5,229.5 387.0,194.8 541.5,160.1 696.0,125.4" fill="none" stroke="#0072B2" stroke-width="2.2" stroke-dasharray="none" stroke-linejoin="round" stroke-linecap="round"/>
  <circle cx="78.0" cy="264.2" r="3.4" fill="#0072B2"/>
  <circle cx="232.5" cy="229.5" r="3.4" fill="#0072B2"/>
  <circle cx="387.0" cy="194.8" r="3.4" fill="#0072B2"/>
  <circle cx="541.5" cy="160.1" r="3.4" fill="#0072B2"/>
  <circle cx="696.0" cy="125.4" r="3.4" fill="#0072B2"/>
  <text x="690.0" y="114.4" font-size="11" fill="#0072B2" text-anchor="end" font-weight="600">기울기 2.00</text>
  <polyline points="78.0,360.3 232.5,338.3 387.0,318.8 541.5,299.6 696.0,280.5" fill="none" stroke="#E69F00" stroke-width="2.2" stroke-dasharray="7 4" stroke-linejoin="round" stroke-linecap="round"/>
  <circle cx="78.0" cy="360.3" r="3.4" fill="#E69F00"/>
  <circle cx="232.5" cy="338.3" r="3.4" fill="#E69F00"/>
  <circle cx="387.0" cy="318.8" r="3.4" fill="#E69F00"/>
  <circle cx="541.5" cy="299.6" r="3.4" fill="#E69F00"/>
  <circle cx="696.0" cy="280.5" r="3.4" fill="#E69F00"/>
  <text x="690.0" y="269.5" font-size="11" fill="#E69F00" text-anchor="end" font-weight="600">기울기 1.15</text>
  <polyline points="78.0,358.1 232.5,338.2 387.0,321.2 541.5,300.8 696.0,281.0" fill="none" stroke="#009E73" stroke-width="2.2" stroke-dasharray="2 3" stroke-linejoin="round" stroke-linecap="round"/>
  <circle cx="78.0" cy="358.1" r="3.4" fill="#009E73"/>
  <circle cx="232.5" cy="338.2" r="3.4" fill="#009E73"/>
  <circle cx="387.0" cy="321.2" r="3.4" fill="#009E73"/>
  <circle cx="541.5" cy="300.8" r="3.4" fill="#009E73"/>
  <circle cx="696.0" cy="281.0" r="3.4" fill="#009E73"/>
  <text x="690.0" y="270.0" font-size="11" fill="#009E73" text-anchor="end" font-weight="600">기울기 1.11</text>
  <polyline points="78.0,358.4 232.5,340.4 387.0,321.0 541.5,299.3 696.0,279.9" fill="none" stroke="#8c4799" stroke-width="2.2" stroke-dasharray="4 2 1 2" stroke-linejoin="round" stroke-linecap="round"/>
  <circle cx="78.0" cy="358.4" r="3.4" fill="#8c4799"/>
  <circle cx="232.5" cy="340.4" r="3.4" fill="#8c4799"/>
  <circle cx="387.0" cy="321.0" r="3.4" fill="#8c4799"/>
  <circle cx="541.5" cy="299.3" r="3.4" fill="#8c4799"/>
  <circle cx="696.0" cy="279.9" r="3.4" fill="#8c4799"/>
  <text x="690.0" y="268.9" font-size="11" fill="#8c4799" text-anchor="end" font-weight="600">기울기 1.13</text>
  <line x1="78.0" y1="386.0" x2="100.0" y2="386.0" stroke="#0072B2" stroke-width="2.4" stroke-dasharray="none"/>
  <circle cx="89.0" cy="386.0" r="3" fill="#0072B2"/>
  <text x="106.0" y="390.0" font-size="11.5" fill="#24292f" text-anchor="start" font-weight="400">첫 원소 피벗 · 정렬됨</text>
  <line x1="209.8" y1="386.0" x2="231.8" y2="386.0" stroke="#E69F00" stroke-width="2.4" stroke-dasharray="7 4"/>
  <circle cx="220.8" cy="386.0" r="3" fill="#E69F00"/>
  <text x="237.8" y="390.0" font-size="11.5" fill="#24292f" text-anchor="start" font-weight="400">첫 원소 피벗 · 무작위</text>
  <line x1="341.6" y1="386.0" x2="363.6" y2="386.0" stroke="#009E73" stroke-width="2.4" stroke-dasharray="2 3"/>
  <circle cx="352.6" cy="386.0" r="3" fill="#009E73"/>
  <text x="369.6" y="390.0" font-size="11.5" fill="#24292f" text-anchor="start" font-weight="400">랜덤 피벗 · 정렬됨</text>
  <line x1="460.2" y1="386.0" x2="482.2" y2="386.0" stroke="#8c4799" stroke-width="2.4" stroke-dasharray="4 2 1 2"/>
  <circle cx="471.2" cy="386.0" r="3" fill="#8c4799"/>
  <text x="488.2" y="390.0" font-size="11.5" fill="#24292f" text-anchor="start" font-weight="400">랜덤 피벗 · 무작위</text>
</svg>
